<?xml version="1.0" standalone="no"?>
<!DOCTYPE svg PUBLIC "-//W3C//DTD SVG 20010904//EN"
 "http://www.w3.org/TR/2001/REC-SVG-20010904/DTD/svg10.dtd">
<svg version="1.0" xmlns="http://www.w3.org/2000/svg"
 width="1080.000000pt" height="1080.000000pt" viewBox="0 0 1080.000000 1080.000000"
 preserveAspectRatio="xMidYMid meet">
<metadata>
Created by potrace 1.14, written by Peter Selinger 2001-2017
</metadata>
<g transform="translate(0.000000,1080.000000) scale(0.100000,-0.100000)"
fill="#000000" stroke="none">
<path d="M530 5435 l0 -4845 4850 0 4850 0 0 4845 0 4845 -4850 0 -4850 0 0
-4845z m7934 4080 c222 -4 232 -5 283 -30 64 -32 186 -151 231 -226 36 -62 59
-151 48 -193 -10 -39 -46 -72 -96 -87 -40 -12 -49 -10 -198 39 l-157 53 -435
-1 c-1496 -1 -2239 -91 -2740 -331 -409 -196 -702 -500 -1026 -1067 -122 -212
-524 -1026 -577 -1167 -59 -157 -82 -264 -73 -339 9 -70 7 -69 182 -90 230
-28 561 -20 804 20 264 44 784 171 1325 324 643 182 1130 300 1395 337 136 19
641 26 753 10 l57 -8 0 -109 c0 -95 -2 -111 -18 -119 -28 -15 -124 -35 -432
-91 -644 -116 -1349 -263 -1943 -405 -1447 -346 -2494 -787 -2918 -1231 -120
-125 -181 -235 -425 -762 -291 -627 -551 -1255 -769 -1857 -48 -132 -93 -252
-101 -266 -34 -67 -146 -120 -207 -99 -72 23 -116 112 -124 250 -10 159 44
345 184 630 47 96 107 222 133 280 26 58 87 191 135 295 130 284 268 596 455
1030 93 215 182 419 199 455 35 74 41 142 15 193 -9 18 -55 76 -103 130 -47
55 -98 114 -114 132 -47 56 -97 148 -97 177 0 63 79 167 157 206 50 25 100 36
273 62 247 37 329 73 395 173 26 41 1007 1892 1108 2094 l26 51 -19 89 c-30
134 -36 281 -16 381 48 235 146 355 493 599 l202 142 268 40 c814 123 1694
230 2198 267 233 17 746 32 930 27 61 -1 213 -5 339 -8z"/>
</g>
</svg>
